<?xml version="1.0" encoding="utf-8"?>
<!-- Generator: Adobe Illustrator 16.0.0, SVG Export Plug-In . SVG Version: 6.00 Build 0)  -->
<!DOCTYPE svg PUBLIC "-//W3C//DTD SVG 1.1//EN" "http://www.w3.org/Graphics/SVG/1.1/DTD/svg11.dtd">
<svg version="1.1" id="Layer_1" xmlns="http://www.w3.org/2000/svg" xmlns:xlink="http://www.w3.org/1999/xlink" x="0px" y="0px"
	 width="101.737px" height="61.439px" viewBox="0 0 101.737 61.439" enable-background="new 0 0 101.737 61.439"
	 xml:space="preserve">
<g display="none">
	<defs>
		<rect id="SVGID_1_" x="-57.604" y="-25.813" width="232.847" height="130.978"/>
	</defs>
	<clipPath id="SVGID_2_" display="inline">
		<use xlink:href="#SVGID_1_"  overflow="visible"/>
	</clipPath>
	
		<radialGradient id="SVGID_3_" cx="-94.5376" cy="161.6646" r="1" gradientTransform="matrix(557.4551 0 0 -557.4551 52761.4297 90281.8984)" gradientUnits="userSpaceOnUse">
		<stop  offset="0" style="stop-color:#616264"/>
		<stop  offset="0.0078" style="stop-color:#5F6062"/>
		<stop  offset="0.0951" style="stop-color:#4C4C4E"/>
		<stop  offset="0.1974" style="stop-color:#38383A"/>
		<stop  offset="0.3249" style="stop-color:#1E1E1F"/>
		<stop  offset="0.5036" style="stop-color:#070708"/>
		<stop  offset="1" style="stop-color:#000000"/>
	</radialGradient>
	
		<rect x="-57.604" y="-25.813" display="inline" clip-path="url(#SVGID_2_)" fill="url(#SVGID_3_)" width="232.847" height="130.978"/>
</g>
<path d="M67.384,14.203h25.104l-5.945,9.579H62.76L67.384,14.203z M39.638,61.439l5.285-9.91L11.231,0H0L39.638,61.439z
	 M62.099,61.439l5.285-9.91L33.692,0H22.461L62.099,61.439z M71.348,8.258h25.104L101.737,0H76.633L71.348,8.258z"/>
<polygon display="none" fill="#FFFFFF" points="-43.529,89.678 -49.475,104.651 -49.845,104.651 -56.985,86.731 -55.577,86.731 
	-49.701,101.45 -43.746,86.731 -43.321,86.731 -37.396,101.45 -31.506,86.731 -30.099,86.731 -37.252,104.651 -37.583,104.651 "/>
<rect x="-24.477" y="86.731" display="none" fill="#FFFFFF" width="1.372" height="17.741"/>
<polygon display="none" fill="#FFFFFF" points="-14.028,86.73 -14.028,103.331 -5.253,103.331 -5.253,104.472 -15.4,104.472 
	-15.4,86.73 "/>
<polygon display="none" fill="#FFFFFF" points="1.818,86.73 1.818,103.331 10.593,103.331 10.593,104.472 0.446,104.472 
	0.446,86.73 "/>
<rect x="16.267" y="86.731" display="none" fill="#FFFFFF" width="1.372" height="17.741"/>
<path display="none" fill="#FFFFFF" d="M32.343,86.603l8.203,17.869h-1.439L36.3,98.338h-8.677l-2.796,6.134h-1.439l8.202-17.869
	H32.343z M35.777,97.196l-3.823-8.356l-3.81,8.356H35.777z"/>
<polygon display="none" fill="#FFFFFF" points="58.176,101.719 64.122,86.745 64.492,86.745 71.631,104.664 70.224,104.664 
	64.348,89.946 58.393,104.664 57.968,104.664 52.042,89.946 46.153,104.664 44.746,104.664 51.899,86.745 52.23,86.745 "/>
<polygon display="none" fill="#FFFFFF" points="97.278,86.73 97.278,87.874 89.519,87.874 89.519,94.618 96.516,94.618 
	96.516,95.759 89.519,95.759 89.519,104.472 88.147,104.472 88.147,86.73 "/>
<polygon display="none" fill="#FFFFFF" points="104.577,86.73 104.577,103.331 113.352,103.331 113.352,104.472 103.206,104.472 
	103.206,86.73 "/>
<polygon display="none" fill="#FFFFFF" points="129.554,86.73 122.658,94.948 122.658,104.472 121.287,104.472 121.287,94.948 
	114.39,86.73 116.048,86.73 121.981,93.759 127.88,86.73 "/>
<polygon display="none" fill="#FFFFFF" points="151.217,86.73 151.217,104.472 150.088,104.472 136.599,88.965 136.599,104.472 
	135.228,104.472 135.228,86.73 136.389,86.73 149.845,102.238 149.845,86.73 "/>
<polygon display="none" fill="#FFFFFF" points="174.912,86.73 174.912,104.472 173.783,104.472 160.294,88.965 160.294,104.472 
	158.923,104.472 158.923,86.73 160.084,86.73 173.541,102.238 173.541,86.73 "/>
<g display="none">
	<defs>
		<rect id="SVGID_4_" x="-94.538" y="-74.212" width="312.439" height="235.877"/>
	</defs>
	<clipPath id="SVGID_5_" display="inline">
		<use xlink:href="#SVGID_4_"  overflow="visible"/>
	</clipPath>
	<path display="inline" clip-path="url(#SVGID_5_)" d="M-55.895,107.771h2.561c0.98,0,1.73,0.219,2.252,0.659
		c0.521,0.439,0.781,1.037,0.781,1.795c0,0.768-0.262,1.375-0.788,1.824c-0.525,0.447-1.296,0.672-2.312,0.672h-1.776v4.343h-0.718
		V107.771z M-55.177,108.37v3.752h1.73c0.776,0,1.366-0.164,1.77-0.492c0.403-0.328,0.604-0.791,0.604-1.391
		c0-0.571-0.197-1.025-0.591-1.363c-0.395-0.336-0.961-0.506-1.697-0.506H-55.177z"/>
	<polygon display="inline" clip-path="url(#SVGID_5_)" points="-27.941,107.771 -27.941,117.065 -28.667,117.065 -28.667,112.661 
		-34.866,112.661 -34.866,117.065 -35.585,117.065 -35.585,107.771 -34.866,107.771 -34.866,112.062 -28.667,112.062 
		-28.667,107.771 	"/>
	<path display="inline" clip-path="url(#SVGID_5_)" d="M-7.911,107.652c1.375,0,2.541,0.462,3.496,1.388
		c0.956,0.923,1.434,2.051,1.434,3.381c0,1.327-0.478,2.453-1.434,3.376c-0.955,0.925-2.121,1.387-3.496,1.387
		c-1.37,0-2.531-0.462-3.482-1.387c-0.951-0.923-1.427-2.049-1.427-3.376c0-1.33,0.476-2.458,1.427-3.381
		C-10.442,108.114-9.281,107.652-7.911,107.652 M-7.884,116.52c1.158,0,2.134-0.396,2.93-1.188c0.797-0.792,1.195-1.762,1.195-2.912
		c0-1.153-0.398-2.125-1.195-2.917c-0.796-0.791-1.772-1.187-2.93-1.187c-1.162,0-2.146,0.396-2.95,1.187
		c-0.805,0.792-1.208,1.764-1.208,2.917c0,1.15,0.403,2.12,1.208,2.912C-10.03,116.124-9.046,116.52-7.884,116.52"/>
	<polygon display="inline" clip-path="url(#SVGID_5_)" points="17.781,107.771 17.781,108.37 14.295,108.37 14.295,117.065 
		13.57,117.065 13.57,108.37 10.084,108.37 10.084,107.771 	"/>
	<path display="inline" clip-path="url(#SVGID_5_)" d="M35.769,107.652c1.375,0,2.541,0.462,3.496,1.388
		c0.956,0.923,1.434,2.051,1.434,3.381c0,1.327-0.478,2.453-1.434,3.376c-0.955,0.925-2.121,1.387-3.496,1.387
		c-1.37,0-2.531-0.462-3.482-1.387c-0.951-0.923-1.427-2.049-1.427-3.376c0-1.33,0.476-2.458,1.427-3.381
		C33.237,108.114,34.398,107.652,35.769,107.652 M35.795,116.52c1.158,0,2.134-0.396,2.93-1.188
		c0.797-0.792,1.195-1.762,1.195-2.912c0-1.153-0.398-2.125-1.195-2.917c-0.796-0.791-1.772-1.187-2.93-1.187
		c-1.162,0-2.146,0.396-2.95,1.187c-0.805,0.792-1.208,1.764-1.208,2.917c0,1.15,0.403,2.12,1.208,2.912
		C33.649,116.124,34.633,116.52,35.795,116.52"/>
	<path display="inline" clip-path="url(#SVGID_5_)" d="M63.589,108.443v0.812c-1.1-0.625-2.198-0.938-3.292-0.938
		c-1.175,0-2.153,0.392-2.934,1.172c-0.78,0.779-1.17,1.759-1.17,2.934c0,1.174,0.385,2.152,1.157,2.93
		c0.772,0.779,1.821,1.168,3.146,1.168c0.958,0,1.808-0.19,2.548-0.571v-2.509h-1.962v-0.6h2.688v3.56
		c-1.096,0.523-2.195,0.784-3.299,0.784c-1.442,0-2.645-0.456-3.609-1.369c-0.965-0.914-1.447-2.054-1.447-3.42
		c0-1.356,0.473-2.485,1.42-3.389c0.947-0.903,2.137-1.354,3.569-1.354C61.379,107.651,62.441,107.916,63.589,108.443"/>
	<path display="inline" clip-path="url(#SVGID_5_)" d="M78.963,107.771h2.382c0.997,0,1.761,0.216,2.288,0.649
		c0.527,0.431,0.791,1.016,0.791,1.752c0,1.074-0.59,1.828-1.769,2.262c0.306,0.146,0.718,0.619,1.237,1.417l2.102,3.213h-0.85
		l-1.619-2.547c-0.541-0.851-0.962-1.382-1.264-1.593s-0.742-0.317-1.323-0.317h-1.258v4.457h-0.718V107.771z M79.681,108.37v3.64
		h1.543c0.786,0,1.386-0.16,1.801-0.477s0.622-0.766,0.622-1.348c0-0.572-0.211-1.017-0.633-1.337
		c-0.421-0.319-1.026-0.479-1.815-0.479H79.681z"/>
	<path display="inline" clip-path="url(#SVGID_5_)" d="M103.792,107.705l4.296,9.36h-0.754l-1.47-3.213h-4.545l-1.465,3.213H99.1
		l4.296-9.36H103.792z M105.589,113.251l-2.002-4.377l-1.996,4.377H105.589z"/>
	<path display="inline" clip-path="url(#SVGID_5_)" d="M122.55,107.771h2.562c0.979,0,1.729,0.219,2.252,0.659
		c0.521,0.439,0.781,1.037,0.781,1.795c0,0.768-0.263,1.375-0.788,1.824c-0.525,0.447-1.296,0.672-2.313,0.672h-1.775v4.343h-0.719
		V107.771z M123.269,108.37v3.752h1.729c0.776,0,1.366-0.164,1.771-0.492c0.402-0.328,0.604-0.791,0.604-1.391
		c0-0.571-0.197-1.025-0.591-1.363c-0.396-0.336-0.961-0.506-1.697-0.506H123.269z"/>
	<polygon display="inline" clip-path="url(#SVGID_5_)" points="150.503,107.771 150.503,117.065 149.779,117.065 149.779,112.661 
		143.579,112.661 143.579,117.065 142.86,117.065 142.86,107.771 143.579,107.771 143.579,112.062 149.779,112.062 149.779,107.771 
			"/>
	<polygon display="inline" clip-path="url(#SVGID_5_)" points="172.876,107.771 169.264,112.076 169.264,117.065 168.545,117.065 
		168.545,112.076 164.933,107.771 165.802,107.771 168.909,111.454 171.999,107.771 	"/>
</g>
</svg>
