<?xml version="1.0" encoding="utf-8"?>
<!-- Generator: Adobe Illustrator 16.0.0, SVG Export Plug-In . SVG Version: 6.00 Build 0)  -->
<!DOCTYPE svg PUBLIC "-//W3C//DTD SVG 1.1//EN" "http://www.w3.org/Graphics/SVG/1.1/DTD/svg11.dtd">
<svg version="1.1" id="Layer_1" xmlns="http://www.w3.org/2000/svg" xmlns:xlink="http://www.w3.org/1999/xlink" x="0px" y="0px"
	 width="231.897px" height="117.065px" viewBox="0 0 231.897 117.065" enable-background="new 0 0 231.897 117.065"
	 xml:space="preserve">
<g display="none">
	<defs>
		<rect id="SVGID_1_" x="-0.618" y="-25.813" width="232.847" height="130.978"/>
	</defs>
	<clipPath id="SVGID_2_" display="inline">
		<use xlink:href="#SVGID_1_"  overflow="visible"/>
	</clipPath>
	
		<radialGradient id="SVGID_3_" cx="-37.5522" cy="161.6646" r="1" gradientTransform="matrix(557.4551 0 0 -557.4551 21051.6406 90281.8984)" gradientUnits="userSpaceOnUse">
		<stop  offset="0" style="stop-color:#616264"/>
		<stop  offset="0.0078" style="stop-color:#5F6062"/>
		<stop  offset="0.0951" style="stop-color:#4C4C4E"/>
		<stop  offset="0.1974" style="stop-color:#38383A"/>
		<stop  offset="0.3249" style="stop-color:#1E1E1F"/>
		<stop  offset="0.5036" style="stop-color:#070708"/>
		<stop  offset="1" style="stop-color:#000000"/>
	</radialGradient>
	
		<rect x="-0.618" y="-25.813" display="inline" clip-path="url(#SVGID_2_)" fill="url(#SVGID_3_)" width="232.847" height="130.978"/>
</g>
<path d="M124.37,14.203h25.104l-5.945,9.579h-23.782L124.37,14.203z M96.624,61.439l5.285-9.91L68.216,0H56.985L96.624,61.439z
	 M119.084,61.439l5.285-9.91L90.677,0H79.446L119.084,61.439z M128.333,8.258h25.104L158.722,0h-25.104L128.333,8.258z"/>
<polygon points="13.456,89.678 7.51,104.651 7.14,104.651 0,86.731 1.408,86.731 7.284,101.45 13.239,86.731 13.664,86.731 
	19.59,101.45 25.479,86.731 26.886,86.731 19.733,104.651 19.402,104.651 "/>
<rect x="32.509" y="86.731" width="1.372" height="17.741"/>
<polygon points="42.958,86.73 42.958,103.331 51.732,103.331 51.732,104.472 41.585,104.472 41.585,86.73 "/>
<polygon points="58.804,86.73 58.804,103.331 67.579,103.331 67.579,104.472 57.432,104.472 57.432,86.73 "/>
<rect x="73.252" y="86.731" width="1.372" height="17.741"/>
<path d="M89.329,86.603l8.203,17.869h-1.439l-2.807-6.134h-8.677l-2.796,6.134h-1.439l8.202-17.869H89.329z M92.763,97.196
	l-3.823-8.356l-3.81,8.356H92.763z"/>
<polygon points="115.161,101.719 121.107,86.745 121.477,86.745 128.617,104.664 127.209,104.664 121.333,89.946 115.378,104.664 
	114.953,104.664 109.027,89.946 103.138,104.664 101.731,104.664 108.884,86.745 109.215,86.745 "/>
<polygon points="154.263,86.73 154.263,87.874 146.504,87.874 146.504,94.618 153.501,94.618 153.501,95.759 146.504,95.759 
	146.504,104.472 145.132,104.472 145.132,86.73 "/>
<polygon points="161.562,86.73 161.562,103.331 170.337,103.331 170.337,104.472 160.191,104.472 160.191,86.73 "/>
<polygon points="186.54,86.73 179.643,94.948 179.643,104.472 178.272,104.472 178.272,94.948 171.375,86.73 173.034,86.73 
	178.966,93.759 184.866,86.73 "/>
<polygon points="208.203,86.73 208.203,104.472 207.074,104.472 193.584,88.965 193.584,104.472 192.213,104.472 192.213,86.73 
	193.375,86.73 206.831,102.238 206.831,86.73 "/>
<polygon points="231.897,86.73 231.897,104.472 230.768,104.472 217.28,88.965 217.28,104.472 215.909,104.472 215.909,86.73 
	217.07,86.73 230.526,102.238 230.526,86.73 "/>
<g>
	<defs>
		<rect id="SVGID_4_" x="-37.552" y="-74.212" width="312.439" height="235.877"/>
	</defs>
	<clipPath id="SVGID_5_">
		<use xlink:href="#SVGID_4_"  overflow="visible"/>
	</clipPath>
	<path clip-path="url(#SVGID_5_)" d="M1.09,107.771h2.561c0.98,0,1.73,0.219,2.252,0.659c0.521,0.439,0.781,1.037,0.781,1.795
		c0,0.768-0.262,1.375-0.788,1.824c-0.525,0.447-1.296,0.672-2.312,0.672H1.809v4.343H1.09V107.771z M1.809,108.37v3.752h1.73
		c0.776,0,1.366-0.164,1.77-0.492c0.403-0.328,0.604-0.791,0.604-1.391c0-0.571-0.197-1.025-0.591-1.363
		c-0.395-0.336-0.961-0.506-1.697-0.506H1.809z"/>
	<polygon clip-path="url(#SVGID_5_)" points="29.044,107.771 29.044,117.065 28.319,117.065 28.319,112.661 22.119,112.661 
		22.119,117.065 21.4,117.065 21.4,107.771 22.119,107.771 22.119,112.062 28.319,112.062 28.319,107.771 	"/>
	<path clip-path="url(#SVGID_5_)" d="M49.074,107.652c1.375,0,2.541,0.462,3.496,1.388c0.956,0.923,1.434,2.051,1.434,3.381
		c0,1.327-0.478,2.453-1.434,3.376c-0.955,0.925-2.121,1.387-3.496,1.387c-1.37,0-2.531-0.462-3.482-1.387
		c-0.951-0.923-1.427-2.049-1.427-3.376c0-1.33,0.476-2.458,1.427-3.381C46.543,108.114,47.704,107.652,49.074,107.652
		 M49.101,116.52c1.158,0,2.134-0.396,2.93-1.188c0.797-0.792,1.195-1.762,1.195-2.912c0-1.153-0.398-2.125-1.195-2.917
		c-0.796-0.791-1.772-1.187-2.93-1.187c-1.162,0-2.146,0.396-2.95,1.187c-0.805,0.792-1.208,1.764-1.208,2.917
		c0,1.15,0.403,2.12,1.208,2.912C46.955,116.124,47.939,116.52,49.101,116.52"/>
	<polygon clip-path="url(#SVGID_5_)" points="74.766,107.771 74.766,108.37 71.28,108.37 71.28,117.065 70.555,117.065 
		70.555,108.37 67.069,108.37 67.069,107.771 	"/>
	<path clip-path="url(#SVGID_5_)" d="M92.754,107.652c1.375,0,2.541,0.462,3.496,1.388c0.956,0.923,1.434,2.051,1.434,3.381
		c0,1.327-0.478,2.453-1.434,3.376c-0.955,0.925-2.121,1.387-3.496,1.387c-1.37,0-2.531-0.462-3.482-1.387
		c-0.951-0.923-1.427-2.049-1.427-3.376c0-1.33,0.476-2.458,1.427-3.381C90.223,108.114,91.384,107.652,92.754,107.652
		 M92.781,116.52c1.158,0,2.134-0.396,2.93-1.188c0.797-0.792,1.195-1.762,1.195-2.912c0-1.153-0.398-2.125-1.195-2.917
		c-0.796-0.791-1.772-1.187-2.93-1.187c-1.162,0-2.146,0.396-2.95,1.187c-0.805,0.792-1.208,1.764-1.208,2.917
		c0,1.15,0.403,2.12,1.208,2.912C90.635,116.124,91.619,116.52,92.781,116.52"/>
	<path clip-path="url(#SVGID_5_)" d="M120.575,108.443v0.812c-1.1-0.625-2.198-0.938-3.292-0.938c-1.175,0-2.153,0.392-2.934,1.172
		c-0.78,0.779-1.17,1.759-1.17,2.934c0,1.174,0.385,2.152,1.157,2.93c0.772,0.779,1.821,1.168,3.146,1.168
		c0.958,0,1.808-0.19,2.548-0.571v-2.509h-1.962v-0.6h2.688v3.56c-1.096,0.523-2.195,0.784-3.299,0.784
		c-1.442,0-2.645-0.456-3.609-1.369c-0.965-0.914-1.447-2.054-1.447-3.42c0-1.356,0.473-2.485,1.42-3.389
		c0.947-0.903,2.137-1.354,3.569-1.354C118.364,107.651,119.426,107.916,120.575,108.443"/>
	<path clip-path="url(#SVGID_5_)" d="M135.949,107.771h2.382c0.997,0,1.761,0.216,2.288,0.649c0.527,0.431,0.791,1.016,0.791,1.752
		c0,1.074-0.59,1.828-1.769,2.262c0.306,0.146,0.718,0.619,1.237,1.417l2.102,3.213h-0.85l-1.619-2.547
		c-0.541-0.851-0.962-1.382-1.264-1.593s-0.742-0.317-1.323-0.317h-1.258v4.457h-0.718V107.771z M136.667,108.37v3.64h1.543
		c0.786,0,1.386-0.16,1.801-0.477s0.622-0.766,0.622-1.348c0-0.572-0.211-1.017-0.633-1.337c-0.421-0.319-1.026-0.479-1.815-0.479
		H136.667z"/>
	<path clip-path="url(#SVGID_5_)" d="M160.777,107.705l4.296,9.36h-0.754l-1.47-3.213h-4.545l-1.465,3.213h-0.754l4.296-9.36
		H160.777z M162.575,113.251l-2.002-4.377l-1.996,4.377H162.575z"/>
	<path clip-path="url(#SVGID_5_)" d="M179.536,107.771h2.562c0.979,0,1.729,0.219,2.252,0.659c0.521,0.439,0.781,1.037,0.781,1.795
		c0,0.768-0.263,1.375-0.788,1.824c-0.525,0.447-1.296,0.672-2.313,0.672h-1.775v4.343h-0.719V107.771z M180.254,108.37v3.752h1.729
		c0.776,0,1.366-0.164,1.771-0.492c0.402-0.328,0.604-0.791,0.604-1.391c0-0.571-0.197-1.025-0.591-1.363
		c-0.396-0.336-0.961-0.506-1.697-0.506H180.254z"/>
	<polygon clip-path="url(#SVGID_5_)" points="207.489,107.771 207.489,117.065 206.764,117.065 206.764,112.661 200.564,112.661 
		200.564,117.065 199.845,117.065 199.845,107.771 200.564,107.771 200.564,112.062 206.764,112.062 206.764,107.771 	"/>
	<polygon clip-path="url(#SVGID_5_)" points="229.862,107.771 226.25,112.076 226.25,117.065 225.531,117.065 225.531,112.076 
		221.918,107.771 222.788,107.771 225.894,111.454 228.984,107.771 	"/>
</g>
</svg>
